<?xml version="1.0" encoding="UTF-8"?>
<svg id="Layer_2" data-name="Layer 2" xmlns="http://www.w3.org/2000/svg" xmlns:xlink="http://www.w3.org/1999/xlink" viewBox="0 0 628.09 342.11">
  <defs>
    <style>
      .cls-1 {
        fill: #514410;
      }

      .cls-2 {
        fill: url(#linear-gradient);
      }

      .cls-3 {
        fill: #d48802;
      }
    </style>
    <linearGradient id="linear-gradient" x1="502.91" y1="75.13" x2="502.91" y2="344.46" gradientUnits="userSpaceOnUse">
      <stop offset=".15" stop-color="#205500"/>
      <stop offset=".16" stop-color="#275700"/>
      <stop offset=".24" stop-color="#425e00"/>
      <stop offset=".31" stop-color="#536300"/>
      <stop offset=".37" stop-color="#596500"/>
      <stop offset=".37" stop-color="#5d6600"/>
      <stop offset=".4" stop-color="#7d6f00"/>
      <stop offset=".44" stop-color="#987700"/>
      <stop offset=".48" stop-color="#ae7d00"/>
      <stop offset=".52" stop-color="#bf8200"/>
      <stop offset=".58" stop-color="#cb8500"/>
      <stop offset=".66" stop-color="#d28700"/>
      <stop offset=".88" stop-color="#d48800"/>
    </linearGradient>
  </defs>
  <g id="Layer_1-2" data-name="Layer 1">
    <path class="cls-1" d="M221.66,44.91c-.63,8.31-5.17,16.72-12.81,20.06-7.65,3.33-18.12-.15-20.68-8.08-1.58-4.87,1.06-10.37,5.14-13.19,3.43-2.37,1.73-7.86-2.44-7.79-.05,0-.09,0-.14,0-7.36.24-12.15,9.51-17.77,20.75-3.29,6.57-9.35,20.77-12.56,42.03-.94,6.2-1.48,12.86-1.49,20.18-.02,19.5,3.81,36.36,8.43,49.67l-42.84.43s-20.82-105.5-47.07-126.82c-15.03-12.21-55.68-8.35-77.43,1.27,2.65-8,6.21-16.09,11.2-22.92,21.53-29.46,71.16-25.72,92.51,2.01,18.99,24.66,26.47,73.58,32.41,92.52,7.12-13.9,25.46-129.96,72.85-97.28,8.61,5.94,13.49,16.73,12.69,27.17Z"/>
    <path class="cls-1" d="M381.08,161.23c-14.41-16.42-20.03-40.12-14.53-61.26,6.34-3.12,15.23-6.56,26.25-8.09,22.32-3.09,40.17,3.5,48.51,7.26.13-11.01.25-22.03.38-33.04-47.18,15.63-64.49,12.03-70.48,4.01-8.88-11.89,6.58-34.25-3.83-45.15-7.21-7.55-22.39-4.96-34.9-1.21,15.07,10.26,19.74,30.22,11.26,45.31-9.08,16.16-29.9,20.82-41.32,15.03-11.75-5.96-8.05-20.09-22.96-30.47-.85-.59-13.21-8.95-27.55-6.26-18.98,3.56-34.84,25.24-33.65,43.92,1.79,28.03,41.4,39.56,36.71,56.99-2.88,10.72-19.67,13.63-21.21,13.88-18.44,2.97-36.8-11.64-39.32-25.78-2.01-11.28,11.35-17.63,11.41-34.24.06-14.38-9.91-26.23-18.71-34.19-22.45,34.07-17.36,82.08,6.56,105.61,23.39,23,65.76,27.62,87.44,8.32,10.31-9.17,19.45-27.38,14.37-42.79-8.55-25.93-50.43-26.84-50.95-45.36-.22-8.08,7.55-16.89,14.65-17.48,13.24-1.1,16.23,27.02,36.77,32.59,17.72,4.81,31-11.92,40.98-4.77,5.75,4.12,3.54,11.49,5.77,27.96,2.87,21.2,6.02,44.68,23.08,59.65,10.34,9.07,24.83,12.84,38.46,11.01,13.62-1.84,26.27-9.02,35.66-19.08-21.67,2.7-44.45-5.96-58.85-22.38Z"/>
    <path class="cls-3" d="M594.83,214.86c-5.11-12.82-23.61-24.03-37.29-21.78-3.92.65-4.98,7.57-3.34,9.14,8.07,7.69,23.72,8.56,27.88,20.35,2.99,8.43-4.32,20.31-12.23,26.17-2.84,2.1-5.6,3.32-7.64,4.03.21-.91,2.03-9.03-3.37-15.28-4.88-5.64-12.03-5.59-13.32-5.5-15.28,1.12-35.53,27.2-10.11,40.6-19.6,16.07-37.05,15.43-44.2,18.49-4.34,1.87-4.48,4.82,5.12,12.01,12.95,9.71,45.08-7.28,57.03-23.24,4.41-5.89,13.95-10.94,17.67-13.19,17.67-10.7,32.34-30.32,23.8-51.81ZM548.08,258.76c-6.28.81-11.5-.75-12.45-3.48-1.53-4.4,7.88-12.4,11.61-10.52,2.48,1.26,2.94,7.14.84,14Z"/>
    <path class="cls-3" d="M478.75,213.37c8.03-1.56,3.36,7.01,2.59,10.72-6.43,31.02,27.12,27.31,24.52-.82-.23-2.44-2.05-6.14,1.35-7.36,5.83-2.09,9.77,8.07,10.34,12.41,2.42,18.39-13.78,43.02-34.43,34.25-13.51-5.74-16.72-19.02-14.77-32.58.78-5.4,4.32-15.44,10.4-16.62Z"/>
    <path class="cls-2" d="M600.94,287.92c-113.73,134.26-256.63-4.97-103.8-157.1.65-.64.96-.93.98-.92.16.16-17,17.83-37.03,26.75-8.31,3.7-32.62,14.52-55.05,2.66-24.33-12.86-27.96-42.61-28.31-45.89,10.56-3.59,27.26-7.69,46.79-4.9,26.36,3.77,27.09,15.69,44.69,16.79,37,2.32,82.66-47.3,102.11-51.49,3.47-.75,12.69-2.76,16.57,1.91.04.05.08.1.12.15,4.68,5.78,4.11,12.34,3.97,13.61-6.43,3.88-13.56,7.92-21.35,11.98-34.36,17.89-64.28,43.39-86.51,75.11-87.91,125.47,24.2,195.59,107.89,91.94,22.14-27.43,41.93-89.38-41.41-82.7-21.43,1.71,12.42-28.31,51.17-6.66,44.02,24.6,25.13,78.12-.82,108.74Z"/>
    <circle class="cls-1" cx="535.47" cy="157.7" r="13.82"/>
    <circle class="cls-3" cx="542.85" cy="214.8" r="9.66"/>
    <circle class="cls-3" cx="482.22" cy="275.29" r="7.67"/>
    <path class="cls-1" d="M345.51,184.57c-11.7-14.75-18.42-44.51-12.67-71.29-3.94,1.91-9.53,4.1-16.49,5.33-7.52,1.33-13.95,1.06-18.49.52,2.87,2.78,12.95,9.55,14.67,26.4.2,1.99,2.11,25.44-16.56,41.76,16.51-.91,33.03-1.82,49.54-2.73Z"/>
    <path class="cls-1" d="M304.94,72.3c1.41-3.33,3.95-6.02,6.88-8.07,2.4-1.68,5.01-3.06,7.4-4.75,3.42-2.41,6.54-5.63,7.92-9.65.26-.77,2.21-7.17,1.46-7.34-6.22-1.4-14.4,2.06-20.24,9.11-6.54,7.91-7.88,17.62-3.58,23.01-.41-.51-.24-1.38.16-2.32Z"/>
    <path class="cls-1" d="M332.78,44.42c-.89-.69-1.89-1.21-2.95-1.58,2.69,8.31-3.17,16.21-9.98,20.19-4.96,2.9-11.17,5.56-13.34,11.36-.16.43-.28.78-.23,1.24.18,2.05,3.84,2.56,5.41,2.77,2.2.29,4.44,0,6.56-.62,4.96-1.46,9.32-4.74,12.59-8.69,7.28-8.79,8.14-19.84,1.94-24.67Z"/>
  </g>
</svg>