<?xml version="1.0" encoding="UTF-8"?>
<svg id="Layer_2" data-name="Layer 2" xmlns="http://www.w3.org/2000/svg" xmlns:xlink="http://www.w3.org/1999/xlink" viewBox="0 0 70.39 38.34">
  <defs>
    <style>
      .cls-1 {
        fill: #f6f2eb;
      }

      .cls-2 {
        fill: url(#linear-gradient);
      }

      .cls-3 {
        fill: #d48802;
      }
    </style>
    <linearGradient id="linear-gradient" x1="56.36" y1="8.42" x2="56.36" y2="38.61" gradientUnits="userSpaceOnUse">
      <stop offset=".15" stop-color="#205500"/>
      <stop offset=".16" stop-color="#275700"/>
      <stop offset=".24" stop-color="#425e00"/>
      <stop offset=".31" stop-color="#536300"/>
      <stop offset=".37" stop-color="#596500"/>
      <stop offset=".37" stop-color="#5d6600"/>
      <stop offset=".4" stop-color="#7d6f00"/>
      <stop offset=".44" stop-color="#987700"/>
      <stop offset=".48" stop-color="#ae7d00"/>
      <stop offset=".52" stop-color="#bf8200"/>
      <stop offset=".58" stop-color="#cb8500"/>
      <stop offset=".66" stop-color="#d28700"/>
      <stop offset=".88" stop-color="#d48800"/>
    </linearGradient>
  </defs>
  <g id="Layer_1-2" data-name="Layer 1">
    <g>
      <path class="cls-1" d="M24.84,5.03c-.07.93-.58,1.87-1.44,2.25-.86.37-2.03-.02-2.32-.91-.18-.55.12-1.16.58-1.48.38-.27.19-.88-.27-.87,0,0-.01,0-.02,0-.82.03-1.36,1.07-1.99,2.33-.37.74-1.05,2.33-1.41,4.71-.11.69-.17,1.44-.17,2.26,0,2.19.43,4.07.94,5.57l-4.8.05s-2.33-11.82-5.28-14.21c-1.68-1.37-6.24-.94-8.68.14.3-.9.7-1.8,1.26-2.57,2.41-3.3,7.98-2.88,10.37.23,2.13,2.76,2.97,8.25,3.63,10.37.8-1.56,2.85-14.57,8.16-10.9.97.67,1.51,1.88,1.42,3.05Z"/>
      <path class="cls-1" d="M42.71,18.07c-1.61-1.84-2.25-4.5-1.63-6.87.71-.35,1.71-.74,2.94-.91,2.5-.35,4.5.39,5.44.81.01-1.23.03-2.47.04-3.7-5.29,1.75-7.23,1.35-7.9.45-.99-1.33.74-3.84-.43-5.06-.81-.85-2.51-.56-3.91-.14,1.69,1.15,2.21,3.39,1.26,5.08-1.02,1.81-3.35,2.33-4.63,1.68-1.32-.67-.9-2.25-2.57-3.42-.1-.07-1.48-1-3.09-.7-2.13.4-3.91,2.83-3.77,4.92.2,3.14,4.64,4.43,4.11,6.39-.32,1.2-2.2,1.53-2.38,1.56-2.07.33-4.12-1.3-4.41-2.89-.23-1.26,1.27-1.98,1.28-3.84,0-1.61-1.11-2.94-2.1-3.83-2.52,3.82-1.95,9.2.73,11.84,2.62,2.58,7.37,3.1,9.8.93,1.16-1.03,2.18-3.07,1.61-4.8-.96-2.91-5.65-3.01-5.71-5.08-.03-.91.85-1.89,1.64-1.96,1.48-.12,1.82,3.03,4.12,3.65,1.99.54,3.47-1.34,4.59-.53.64.46.4,1.29.65,3.13.32,2.38.67,5.01,2.59,6.69,1.16,1.02,2.78,1.44,4.31,1.23,1.53-.21,2.94-1.01,4-2.14-2.43.3-4.98-.67-6.6-2.51Z"/>
      <path class="cls-3" d="M66.67,24.08c-.57-1.44-2.65-2.69-4.18-2.44-.44.07-.56.85-.37,1.02.9.86,2.66.96,3.13,2.28.33.95-.48,2.28-1.37,2.93-.32.24-.63.37-.86.45.02-.1.23-1.01-.38-1.71-.55-.63-1.35-.63-1.49-.62-1.71.13-3.98,3.05-1.13,4.55-2.2,1.8-4.15,1.73-4.95,2.07-.49.21-.5.54.57,1.35,1.45,1.09,5.05-.82,6.39-2.6.49-.66,1.56-1.23,1.98-1.48,1.98-1.2,3.62-3.4,2.67-5.81ZM61.43,29c-.7.09-1.29-.08-1.4-.39-.17-.49.88-1.39,1.3-1.18.28.14.33.8.09,1.57Z"/>
      <path class="cls-3" d="M53.66,23.91c.9-.17.38.79.29,1.2-.72,3.48,3.04,3.06,2.75-.09-.03-.27-.23-.69.15-.83.65-.23,1.09.9,1.16,1.39.27,2.06-1.54,4.82-3.86,3.84-1.51-.64-1.87-2.13-1.66-3.65.09-.61.48-1.73,1.17-1.86Z"/>
      <path class="cls-2" d="M67.35,32.27c-12.75,15.05-28.76-.56-11.63-17.61.07-.07.11-.1.11-.1.02.02-1.91,2-4.15,3-.93.41-3.66,1.63-6.17.3-2.73-1.44-3.13-4.78-3.17-5.14,1.18-.4,3.06-.86,5.24-.55,2.95.42,3.04,1.76,5.01,1.88,4.15.26,9.26-5.3,11.44-5.77.39-.08,1.42-.31,1.86.21,0,0,0,.01.01.02.53.65.46,1.38.45,1.53-.72.43-1.52.89-2.39,1.34-3.85,2.01-7.2,4.86-9.7,8.42-9.85,14.06,2.71,21.92,12.09,10.3,2.48-3.07,4.7-10.02-4.64-9.27-2.4.19,1.39-3.17,5.74-.75,4.93,2.76,2.82,8.76-.09,12.19Z"/>
      <circle class="cls-1" cx="60.01" cy="17.67" r="1.55"/>
      <circle class="cls-3" cx="60.84" cy="24.07" r="1.08"/>
      <circle class="cls-3" cx="54.05" cy="30.85" r=".86"/>
      <path class="cls-1" d="M38.72,20.69c-1.31-1.65-2.06-4.99-1.42-7.99-.44.21-1.07.46-1.85.6-.84.15-1.56.12-2.07.06.32.31,1.45,1.07,1.64,2.96.02.22.24,2.85-1.86,4.68,1.85-.1,3.7-.2,5.55-.31Z"/>
      <path class="cls-1" d="M34.18,8.1c.16-.37.44-.67.77-.9.27-.19.56-.34.83-.53.38-.27.73-.63.89-1.08.03-.09.25-.8.16-.82-.7-.16-1.61.23-2.27,1.02-.73.89-.88,1.97-.4,2.58-.05-.06-.03-.16.02-.26Z"/>
      <path class="cls-1" d="M37.3,4.98c-.1-.08-.21-.14-.33-.18.3.93-.36,1.82-1.12,2.26-.56.33-1.25.62-1.49,1.27-.02.05-.03.09-.03.14.02.23.43.29.61.31.25.03.5,0,.74-.07.56-.16,1.04-.53,1.41-.97.82-.99.91-2.22.22-2.76Z"/>
    </g>
  </g>
</svg>